HIERARCHY
ROOT ui
{
	 OFFSET 0 0 0
	 CHANNELS 3 XPosition YPosition Z Position
	 EndSite
	 {
	 OFFSET 0 -1 0
	 }
}
ROOT li
{
	 OFFSET 0 0 0
	 CHANNELS 3 XPosition YPosition Z Position
	 EndSite
	 {
	 OFFSET 0 -1 0
	 }
}
ROOT ul
{
	 OFFSET 0 0 0
	 CHANNELS 3 XPosition YPosition Z Position
	 EndSite
	 {
	 OFFSET 0 -1 0
	 }
}
ROOT ll
{
	 OFFSET 0 0 0
	 CHANNELS 3 XPosition YPosition Z Position
	 EndSite
	 {
	 OFFSET 0 -1 0
	 }
}
ROOT tt
{
	 OFFSET 0 0 0
	 CHANNELS 3 XPosition YPosition Z Position
	 EndSite
	 {
	 OFFSET 0 -1 0
	 }
}
ROOT tb
{
	 OFFSET 0 0 0
	 CHANNELS 3 XPosition YPosition Z Position
	 EndSite
	 {
	 OFFSET 0 -1 0
	 }
}
ROOT td
{
	 OFFSET 0 0 0
	 CHANNELS 3 XPosition YPosition Z Position
	 EndSite
	 {
	 OFFSET 0 -1 0
	 }
}
ROOT v
{
	 OFFSET 0 0 0
	 CHANNELS 3 XPosition YPosition Z Position
	 EndSite
	 {
	 OFFSET 0 -1 0
	 }
}
ROOT bn
{
	 OFFSET 0 0 0
	 CHANNELS 3 XPosition YPosition Z Position
	 EndSite
	 {
	 OFFSET 0 -1 0
	 }
}
MOTION
Frames: 13
Frame Time: 0.002
-0.007590377807617187	0.0041686491966247555	0		0.46339453125	-2.3681005859375	0		-0.9988193969726562	-0.13004794311523438	0		-0.5106223449707031	-2.47846875	0		1.4819068603515626	-0.6230625610351562	0		3.082602294921875	0.23777877807617187	0		4.42828857421875	-0.029163175582885743	0		5.98153857421875	0.5560880126953125	0		-0.2597008056640625	5.85763427734375	0		
0.021515880584716797	0.006789210796356201	0		0.48351962280273436	-2.3594072265625	0		-0.9866433715820313	-0.11926217651367188	0		-0.53563916015625	-2.48536083984375	0		1.5219678955078124	-0.6245614013671875	0		3.08564208984375	0.23258523559570313	0		4.42244873046875	-0.020297075271606447	0		5.97670751953125	0.5649224243164063	0		-0.31065652465820315	5.84396923828125	0		
-0.007408496856689453	0.003938651084899903	0		0.4795387878417969	-2.364487548828125	0		-1.0005614624023438	-0.12123018646240234	0		-0.509872314453125	-2.518690673828125	0		1.50801513671875	-0.6295692138671874	0		3.066703125	0.22759701538085939	0		4.4154697265625	-0.029413185119628905	0		5.97681787109375	0.5647189331054687	0		-0.31046243286132813	5.8438662109375	0		
0.014673996925354003	-3.533399999141693E-4	0		0.4775992431640625	-2.366573974609375	0		-1.06644189453125	-0.12072075653076172	0		-0.5578929443359375	-2.529349853515625	0		1.508123291015625	-0.6296913452148437	0		3.07383447265625	0.2283855438232422	0		4.40765087890625	-0.02251443672180176	0		5.98086572265625	0.5554844360351563	0		-0.30925167846679685	5.8427666015625	0		
-0.011191851615905761	-2.0751099288463592E-4	0		0.47768850708007815	-2.3666689453125	0		-1.056329345703125	-0.12287639617919922	0		-0.5359683227539063	-2.547621337890625	0		1.4701748046875	-0.6374656982421875	0		3.073971923828125	0.228242431640625	0		4.42182763671875	-0.017807514190673827	0		5.98100927734375	0.5552874755859375	0		-0.308019287109375	5.84167724609375	0		
0.011914224624633788	-0.0044915881156921385	0		0.4617496337890625	-2.370613525390625	0		-1.0911517333984375	-0.11862100982666016	0		-0.561098388671875	-2.572464599609375	0		1.5083751220703125	-0.6299136352539062	0		3.06422705078125	0.24019252014160156	0		4.408970703125	-0.017856590270996092	0		5.97724365234375	0.5641268310546875	0		-0.29266378784179686	5.8524697265625	0		
-0.0038389310836791993	0.00657808780670166	0		0.49084735107421873	-2.37095654296875	0		-1.0479813232421875	-0.11605775451660157	0		-0.5141132202148437	-2.584947509765625	0		1.473475341796875	-0.63370361328125	0		3.08037890625	0.2399127960205078	0		4.406109375	-0.0189934139251709	0		5.97740283203125	0.5639308471679687	0		-0.2724595642089844	5.8452236328125	0		
-0.010754250526428222	-4.286620020866394E-4	0		0.45201779174804685	-2.3626865234375	0		-1.047836669921875	-0.11610559844970703	0		-0.5321910400390625	-2.603843994140625	0		1.5105626220703126	-0.6391375732421875	0		3.09148583984375	0.2346786193847656	0		4.41031884765625	-0.012193236351013183	0		5.97756201171875	0.5637339477539063	0		-0.30623193359375	5.84046533203125	0		
-0.0106119384765625	-4.978890120983124E-4	0		0.5139710693359375	-2.37832421875	0		-1.04769677734375	-0.11615230560302735	0		-0.5363305053710937	-2.628864990234375	0		1.5027093505859375	-0.6371677856445312	0		3.067643310546875	0.2357583770751953	0		4.41637939453125	-0.021412195205688475	0		5.96857275390625	0.547616455078125	0		-0.32106134033203126	5.8295380859375	0		
-0.013504091262817383	-0.003541996955871582	0		0.45017376708984375	-2.3648291015625	0		-1.0815269775390626	-0.11189373779296875	0		-0.5164349975585938	-2.6491044921875	0		1.5027127685546875	-0.6502718505859375	0		3.04873876953125	0.23079132080078124	0		4.39864111328125	-0.007418690204620361	0		5.9867099609375	0.5462510986328125	0		-0.30273590087890623	5.836310546875	0		
-0.006313568115234375	0.0033183069229125975	0		0.4980935974121094	-2.382349365234375	0		-1.073329833984375	-0.10401921081542968	0		-0.54260888671875	-2.675932861328125	0		1.4758814697265625	-0.6441365356445312	0		3.09190576171875	0.23425872802734374	0		4.40875	-0.009681545257568359	0		5.99484912109375	0.5459716186523438	0		-0.2873909912109375	5.8461044921875	0		
0.0017906709909439086	0.001162438988685608	0		0.46631231689453123	-2.366153564453125	0		-1.0601099853515625	-0.09319837188720703	0		-0.4867451171875	-2.698512451171875	0		1.5139434814453125	-0.64959619140625	0		3.060052978515625	0.23640016174316406	0		4.4080087890625	0.005149896144866943	0		5.97813818359375	0.5629146118164062	0		-0.26818133544921874	5.84185498046875	0		
0.015893573760986327	-0.0010581049919128418	0		0.5162930908203125	-2.376710693359375	0		-1.0650263671875	-0.09722445678710938	0		-0.514767822265625	-2.708340576171875	0		1.507988525390625	-0.6566650390625	0		3.0670791015625	0.22518191528320314	0		4.40899365234375	-0.010040813446044922	0		5.98204345703125	0.537665283203125	0		-0.2538421173095703	5.85263916015625	0		
